<svg xmlns="http://www.w3.org/2000/svg" viewBox="0 0 99.38 141.94"><defs><style>.cls-1{fill:#ccc;}.cls-2{fill:#fff;}</style></defs><g id="Layer_2" data-name="Layer 2"><g id="Layer_1-2" data-name="Layer 1"><path class="cls-1" d="M80,40a39.81,39.81,0,0,1-5.15,19.65,44.88,44.88,0,0,0-15.48-2.73H58.31a24.78,24.78,0,0,0,5.76-23.66l13.25-7.68A39.84,39.84,0,0,1,80,40Z"/><path class="cls-2" d="M84.37,61.94v8.75a39.81,39.81,0,0,0-23.71-8.75H58.08a40,40,0,0,0-10.44,1.73,3.38,3.38,0,0,1-.42.13,25,25,0,0,1-25-6.29,24.55,24.55,0,0,1-4.57-6.3l43.11-25,13-7.56A40,40,0,0,0,2,52.38a38.73,38.73,0,0,0,2.72,6.38A40.18,40.18,0,0,0,22.58,76,38.11,38.11,0,0,0,27.35,78a40.06,40.06,0,0,0,24.46.27l.24-.07a24.91,24.91,0,1,1-11,6.84H40a44.82,44.82,0,0,1-15.47-2.73,40,40,0,0,0,59.84,50.88v8.79h15v-80ZM15,40A25,25,0,0,1,56.11,21L15.43,44.57A23.76,23.76,0,0,1,15,40Z"/></g></g></svg>